M48
; DRILL file {KiCad (5.1.9)-1} date 04/19/21 08:10:01
; FORMAT={-:-/ absolute / metric / decimal}
; #@! TF.CreationDate,2021-04-19T08:10:01-05:00
; #@! TF.GenerationSoftware,Kicad,Pcbnew,(5.1.9)-1
; #@! TF.FileFunction,Plated,1,2,PTH
FMAT,2
METRIC
T1C0.798
T2C1.000
T3C1.100
%
G90
G05
T1
X128.016Y-109.474
X147.32Y-109.474
X147.32Y-115.316
X149.86Y-109.474
T2
X106.68Y-116.84
X106.68Y-132.08
X109.22Y-116.84
X109.22Y-132.08
X111.76Y-116.84
X111.76Y-132.08
X114.3Y-116.84
X114.3Y-132.08
X116.84Y-116.84
X116.84Y-132.08
X119.38Y-116.84
X119.38Y-132.08
X121.92Y-116.84
X121.92Y-132.08
X124.46Y-116.84
X124.46Y-132.08
X127.0Y-116.84
X127.0Y-132.08
X129.54Y-116.84
X129.54Y-132.08
X132.08Y-116.84
X132.08Y-132.08
X134.62Y-116.84
X134.62Y-132.08
X137.16Y-116.84
X137.16Y-132.08
X139.7Y-116.84
X139.7Y-132.08
X142.24Y-101.6
X142.24Y-116.84
X142.24Y-132.08
X144.78Y-101.6
X147.32Y-101.6
X149.86Y-101.6
X163.982Y-118.466
X163.982Y-121.006
X167.005Y-126.365
X167.005Y-128.905
X182.88Y-121.92
X182.88Y-124.46
X182.88Y-127.0
T3
X108.585Y-105.26
X108.585Y-111.76
X113.085Y-105.26
X113.085Y-111.76
X119.38Y-105.26
X119.38Y-111.76
X123.88Y-105.26
X123.88Y-111.76
X168.22Y-105.41
X168.22Y-111.91
X172.72Y-105.41
X172.72Y-111.91
X179.015Y-105.41
X179.015Y-111.91
X183.515Y-105.41
X183.515Y-111.91
T0
M30
