%FSLAX45Y45*%
G04 Gerber Fmt 4.5, Leading zero omitted, Abs format (unit mm)*
G04 Created by KiCad (PCBNEW (5.1.9)-1) date 2021-04-19 08:10:03*
%MOMM*%
%LPD*%
G01*
G04 APERTURE LIST*
%TA.AperFunction,Profile*%
%ADD10C,0.050000*%
%TD*%
%ADD11C,0.200000*%
%ADD12C,0.300000*%
G04 APERTURE END LIST*
D10*
X10709656Y-10312400D02*
X13970000Y-10312400D01*
X9969500Y-11366500D02*
X10709656Y-10312400D01*
X10096500Y-13462000D02*
G75*
G02*
X9969500Y-13335000I0J127000D01*
G01*
X14782800Y-13335000D02*
G75*
G02*
X14655800Y-13462000I-127000J0D01*
G01*
X18567400Y-13004800D02*
G75*
G02*
X18440400Y-13131800I-127000J0D01*
G01*
X18440400Y-10312400D02*
G75*
G02*
X18567400Y-10439400I0J-127000D01*
G01*
X15113000Y-9829800D02*
G75*
G02*
X15240000Y-9956800I0J-127000D01*
G01*
X13970000Y-9956800D02*
G75*
G02*
X14097000Y-9829800I127000J0D01*
G01*
X14655800Y-13462000D02*
X14414500Y-13462000D01*
X14097000Y-9829800D02*
X15113000Y-9829800D01*
X14782800Y-13131800D02*
X14782800Y-13335000D01*
X14782800Y-13131800D02*
X18440400Y-13131800D01*
X18567400Y-10439400D02*
X18567400Y-13004800D01*
X15240000Y-10312400D02*
X15240000Y-9956800D01*
X15240000Y-10312400D02*
X18440400Y-10312400D01*
X13970000Y-10312400D02*
X13970000Y-9956800D01*
X9969500Y-13335000D02*
X9969500Y-11366500D01*
X10096500Y-13462000D02*
X14414500Y-13462000D01*
D11*
X12761722Y-10907522D02*
X12841478Y-10987278D01*
X12841478Y-10907522D02*
X12761722Y-10987278D01*
X14692122Y-10907522D02*
X14771878Y-10987278D01*
X14771878Y-10907522D02*
X14692122Y-10987278D01*
X14692122Y-11491722D02*
X14771878Y-11571478D01*
X14771878Y-11491722D02*
X14692122Y-11571478D01*
X14946122Y-10907522D02*
X15025878Y-10987278D01*
X15025878Y-10907522D02*
X14946122Y-10987278D01*
X10718000Y-11684000D02*
G75*
G03*
X10718000Y-11684000I-50000J0D01*
G01*
X10718000Y-13208000D02*
G75*
G03*
X10718000Y-13208000I-50000J0D01*
G01*
X10972000Y-11684000D02*
G75*
G03*
X10972000Y-11684000I-50000J0D01*
G01*
X10972000Y-13208000D02*
G75*
G03*
X10972000Y-13208000I-50000J0D01*
G01*
X11226000Y-11684000D02*
G75*
G03*
X11226000Y-11684000I-50000J0D01*
G01*
X11226000Y-13208000D02*
G75*
G03*
X11226000Y-13208000I-50000J0D01*
G01*
X11480000Y-11684000D02*
G75*
G03*
X11480000Y-11684000I-50000J0D01*
G01*
X11480000Y-13208000D02*
G75*
G03*
X11480000Y-13208000I-50000J0D01*
G01*
X11734000Y-11684000D02*
G75*
G03*
X11734000Y-11684000I-50000J0D01*
G01*
X11734000Y-13208000D02*
G75*
G03*
X11734000Y-13208000I-50000J0D01*
G01*
X11988000Y-11684000D02*
G75*
G03*
X11988000Y-11684000I-50000J0D01*
G01*
X11988000Y-13208000D02*
G75*
G03*
X11988000Y-13208000I-50000J0D01*
G01*
X12242000Y-11684000D02*
G75*
G03*
X12242000Y-11684000I-50000J0D01*
G01*
X12242000Y-13208000D02*
G75*
G03*
X12242000Y-13208000I-50000J0D01*
G01*
X12496000Y-11684000D02*
G75*
G03*
X12496000Y-11684000I-50000J0D01*
G01*
X12496000Y-13208000D02*
G75*
G03*
X12496000Y-13208000I-50000J0D01*
G01*
X12750000Y-11684000D02*
G75*
G03*
X12750000Y-11684000I-50000J0D01*
G01*
X12750000Y-13208000D02*
G75*
G03*
X12750000Y-13208000I-50000J0D01*
G01*
X13004000Y-11684000D02*
G75*
G03*
X13004000Y-11684000I-50000J0D01*
G01*
X13004000Y-13208000D02*
G75*
G03*
X13004000Y-13208000I-50000J0D01*
G01*
X13258000Y-11684000D02*
G75*
G03*
X13258000Y-11684000I-50000J0D01*
G01*
X13258000Y-13208000D02*
G75*
G03*
X13258000Y-13208000I-50000J0D01*
G01*
X13512000Y-11684000D02*
G75*
G03*
X13512000Y-11684000I-50000J0D01*
G01*
X13512000Y-13208000D02*
G75*
G03*
X13512000Y-13208000I-50000J0D01*
G01*
X13766000Y-11684000D02*
G75*
G03*
X13766000Y-11684000I-50000J0D01*
G01*
X13766000Y-13208000D02*
G75*
G03*
X13766000Y-13208000I-50000J0D01*
G01*
X14020000Y-11684000D02*
G75*
G03*
X14020000Y-11684000I-50000J0D01*
G01*
X14020000Y-13208000D02*
G75*
G03*
X14020000Y-13208000I-50000J0D01*
G01*
X14274000Y-10160000D02*
G75*
G03*
X14274000Y-10160000I-50000J0D01*
G01*
X14274000Y-11684000D02*
G75*
G03*
X14274000Y-11684000I-50000J0D01*
G01*
X14274000Y-13208000D02*
G75*
G03*
X14274000Y-13208000I-50000J0D01*
G01*
X14528000Y-10160000D02*
G75*
G03*
X14528000Y-10160000I-50000J0D01*
G01*
X14782000Y-10160000D02*
G75*
G03*
X14782000Y-10160000I-50000J0D01*
G01*
X15036000Y-10160000D02*
G75*
G03*
X15036000Y-10160000I-50000J0D01*
G01*
X16448240Y-11846560D02*
G75*
G03*
X16448240Y-11846560I-50000J0D01*
G01*
X16448240Y-12100560D02*
G75*
G03*
X16448240Y-12100560I-50000J0D01*
G01*
X16750500Y-12636500D02*
G75*
G03*
X16750500Y-12636500I-50000J0D01*
G01*
X16750500Y-12890500D02*
G75*
G03*
X16750500Y-12890500I-50000J0D01*
G01*
X18338000Y-12192000D02*
G75*
G03*
X18338000Y-12192000I-50000J0D01*
G01*
X18338000Y-12446000D02*
G75*
G03*
X18338000Y-12446000I-50000J0D01*
G01*
X18338000Y-12700000D02*
G75*
G03*
X18338000Y-12700000I-50000J0D01*
G01*
X10858500Y-10471000D02*
X10858500Y-10581000D01*
X10803500Y-10526000D02*
X10913500Y-10526000D01*
X10858500Y-11121000D02*
X10858500Y-11231000D01*
X10803500Y-11176000D02*
X10913500Y-11176000D01*
X11308500Y-10471000D02*
X11308500Y-10581000D01*
X11253500Y-10526000D02*
X11363500Y-10526000D01*
X11308500Y-11121000D02*
X11308500Y-11231000D01*
X11253500Y-11176000D02*
X11363500Y-11176000D01*
X11938000Y-10471000D02*
X11938000Y-10581000D01*
X11883000Y-10526000D02*
X11993000Y-10526000D01*
X11938000Y-11121000D02*
X11938000Y-11231000D01*
X11883000Y-11176000D02*
X11993000Y-11176000D01*
X12388000Y-10471000D02*
X12388000Y-10581000D01*
X12333000Y-10526000D02*
X12443000Y-10526000D01*
X12388000Y-11121000D02*
X12388000Y-11231000D01*
X12333000Y-11176000D02*
X12443000Y-11176000D01*
X16822000Y-10486000D02*
X16822000Y-10596000D01*
X16767000Y-10541000D02*
X16877000Y-10541000D01*
X16822000Y-11136000D02*
X16822000Y-11246000D01*
X16767000Y-11191000D02*
X16877000Y-11191000D01*
X17272000Y-10486000D02*
X17272000Y-10596000D01*
X17217000Y-10541000D02*
X17327000Y-10541000D01*
X17272000Y-11136000D02*
X17272000Y-11246000D01*
X17217000Y-11191000D02*
X17327000Y-11191000D01*
X17901500Y-10486000D02*
X17901500Y-10596000D01*
X17846500Y-10541000D02*
X17956500Y-10541000D01*
X17901500Y-11136000D02*
X17901500Y-11246000D01*
X17846500Y-11191000D02*
X17956500Y-11191000D01*
X18351500Y-10486000D02*
X18351500Y-10596000D01*
X18296500Y-10541000D02*
X18406500Y-10541000D01*
X18351500Y-11136000D02*
X18351500Y-11246000D01*
X18296500Y-11191000D02*
X18406500Y-11191000D01*
D12*
X10253428Y-13930214D02*
X10253428Y-13630214D01*
X10324857Y-13630214D01*
X10367714Y-13644500D01*
X10396286Y-13673071D01*
X10410571Y-13701643D01*
X10424857Y-13758786D01*
X10424857Y-13801643D01*
X10410571Y-13858786D01*
X10396286Y-13887357D01*
X10367714Y-13915929D01*
X10324857Y-13930214D01*
X10253428Y-13930214D01*
X10553428Y-13930214D02*
X10553428Y-13730214D01*
X10553428Y-13787357D02*
X10567714Y-13758786D01*
X10582000Y-13744500D01*
X10610571Y-13730214D01*
X10639143Y-13730214D01*
X10739143Y-13930214D02*
X10739143Y-13730214D01*
X10739143Y-13630214D02*
X10724857Y-13644500D01*
X10739143Y-13658786D01*
X10753428Y-13644500D01*
X10739143Y-13630214D01*
X10739143Y-13658786D01*
X10924857Y-13930214D02*
X10896286Y-13915929D01*
X10882000Y-13887357D01*
X10882000Y-13630214D01*
X11082000Y-13930214D02*
X11053428Y-13915929D01*
X11039143Y-13887357D01*
X11039143Y-13630214D01*
X11424857Y-13930214D02*
X11424857Y-13630214D01*
X11524857Y-13844500D01*
X11624857Y-13630214D01*
X11624857Y-13930214D01*
X11896286Y-13930214D02*
X11896286Y-13773071D01*
X11882000Y-13744500D01*
X11853428Y-13730214D01*
X11796286Y-13730214D01*
X11767714Y-13744500D01*
X11896286Y-13915929D02*
X11867714Y-13930214D01*
X11796286Y-13930214D01*
X11767714Y-13915929D01*
X11753428Y-13887357D01*
X11753428Y-13858786D01*
X11767714Y-13830214D01*
X11796286Y-13815929D01*
X11867714Y-13815929D01*
X11896286Y-13801643D01*
X12039143Y-13730214D02*
X12039143Y-14030214D01*
X12039143Y-13744500D02*
X12067714Y-13730214D01*
X12124857Y-13730214D01*
X12153428Y-13744500D01*
X12167714Y-13758786D01*
X12182000Y-13787357D01*
X12182000Y-13873071D01*
X12167714Y-13901643D01*
X12153428Y-13915929D01*
X12124857Y-13930214D01*
X12067714Y-13930214D01*
X12039143Y-13915929D01*
X12310571Y-13901643D02*
X12324857Y-13915929D01*
X12310571Y-13930214D01*
X12296286Y-13915929D01*
X12310571Y-13901643D01*
X12310571Y-13930214D01*
X12310571Y-13744500D02*
X12324857Y-13758786D01*
X12310571Y-13773071D01*
X12296286Y-13758786D01*
X12310571Y-13744500D01*
X12310571Y-13773071D01*
X9887244Y-14384622D02*
X9967000Y-14464378D01*
X9967000Y-14384622D02*
X9887244Y-14464378D01*
X10310571Y-14260214D02*
X10339143Y-14260214D01*
X10367714Y-14274500D01*
X10382000Y-14288786D01*
X10396286Y-14317357D01*
X10410571Y-14374500D01*
X10410571Y-14445929D01*
X10396286Y-14503071D01*
X10382000Y-14531643D01*
X10367714Y-14545929D01*
X10339143Y-14560214D01*
X10310571Y-14560214D01*
X10282000Y-14545929D01*
X10267714Y-14531643D01*
X10253428Y-14503071D01*
X10239143Y-14445929D01*
X10239143Y-14374500D01*
X10253428Y-14317357D01*
X10267714Y-14288786D01*
X10282000Y-14274500D01*
X10310571Y-14260214D01*
X10539143Y-14531643D02*
X10553428Y-14545929D01*
X10539143Y-14560214D01*
X10524857Y-14545929D01*
X10539143Y-14531643D01*
X10539143Y-14560214D01*
X10724857Y-14388786D02*
X10696286Y-14374500D01*
X10682000Y-14360214D01*
X10667714Y-14331643D01*
X10667714Y-14317357D01*
X10682000Y-14288786D01*
X10696286Y-14274500D01*
X10724857Y-14260214D01*
X10782000Y-14260214D01*
X10810571Y-14274500D01*
X10824857Y-14288786D01*
X10839143Y-14317357D01*
X10839143Y-14331643D01*
X10824857Y-14360214D01*
X10810571Y-14374500D01*
X10782000Y-14388786D01*
X10724857Y-14388786D01*
X10696286Y-14403071D01*
X10682000Y-14417357D01*
X10667714Y-14445929D01*
X10667714Y-14503071D01*
X10682000Y-14531643D01*
X10696286Y-14545929D01*
X10724857Y-14560214D01*
X10782000Y-14560214D01*
X10810571Y-14545929D01*
X10824857Y-14531643D01*
X10839143Y-14503071D01*
X10839143Y-14445929D01*
X10824857Y-14417357D01*
X10810571Y-14403071D01*
X10782000Y-14388786D01*
X11024857Y-14260214D02*
X11053428Y-14260214D01*
X11082000Y-14274500D01*
X11096286Y-14288786D01*
X11110571Y-14317357D01*
X11124857Y-14374500D01*
X11124857Y-14445929D01*
X11110571Y-14503071D01*
X11096286Y-14531643D01*
X11082000Y-14545929D01*
X11053428Y-14560214D01*
X11024857Y-14560214D01*
X10996286Y-14545929D01*
X10982000Y-14531643D01*
X10967714Y-14503071D01*
X10953428Y-14445929D01*
X10953428Y-14374500D01*
X10967714Y-14317357D01*
X10982000Y-14288786D01*
X10996286Y-14274500D01*
X11024857Y-14260214D01*
X11253428Y-14560214D02*
X11253428Y-14360214D01*
X11253428Y-14388786D02*
X11267714Y-14374500D01*
X11296286Y-14360214D01*
X11339143Y-14360214D01*
X11367714Y-14374500D01*
X11382000Y-14403071D01*
X11382000Y-14560214D01*
X11382000Y-14403071D02*
X11396286Y-14374500D01*
X11424857Y-14360214D01*
X11467714Y-14360214D01*
X11496286Y-14374500D01*
X11510571Y-14403071D01*
X11510571Y-14560214D01*
X11653428Y-14560214D02*
X11653428Y-14360214D01*
X11653428Y-14388786D02*
X11667714Y-14374500D01*
X11696286Y-14360214D01*
X11739143Y-14360214D01*
X11767714Y-14374500D01*
X11782000Y-14403071D01*
X11782000Y-14560214D01*
X11782000Y-14403071D02*
X11796286Y-14374500D01*
X11824857Y-14360214D01*
X11867714Y-14360214D01*
X11896286Y-14374500D01*
X11910571Y-14403071D01*
X11910571Y-14560214D01*
X12496286Y-14245929D02*
X12239143Y-14631643D01*
X12882000Y-14260214D02*
X12910571Y-14260214D01*
X12939143Y-14274500D01*
X12953428Y-14288786D01*
X12967714Y-14317357D01*
X12982000Y-14374500D01*
X12982000Y-14445929D01*
X12967714Y-14503071D01*
X12953428Y-14531643D01*
X12939143Y-14545929D01*
X12910571Y-14560214D01*
X12882000Y-14560214D01*
X12853428Y-14545929D01*
X12839143Y-14531643D01*
X12824857Y-14503071D01*
X12810571Y-14445929D01*
X12810571Y-14374500D01*
X12824857Y-14317357D01*
X12839143Y-14288786D01*
X12853428Y-14274500D01*
X12882000Y-14260214D01*
X13110571Y-14531643D02*
X13124857Y-14545929D01*
X13110571Y-14560214D01*
X13096286Y-14545929D01*
X13110571Y-14531643D01*
X13110571Y-14560214D01*
X13310571Y-14260214D02*
X13339143Y-14260214D01*
X13367714Y-14274500D01*
X13382000Y-14288786D01*
X13396286Y-14317357D01*
X13410571Y-14374500D01*
X13410571Y-14445929D01*
X13396286Y-14503071D01*
X13382000Y-14531643D01*
X13367714Y-14545929D01*
X13339143Y-14560214D01*
X13310571Y-14560214D01*
X13282000Y-14545929D01*
X13267714Y-14531643D01*
X13253428Y-14503071D01*
X13239143Y-14445929D01*
X13239143Y-14374500D01*
X13253428Y-14317357D01*
X13267714Y-14288786D01*
X13282000Y-14274500D01*
X13310571Y-14260214D01*
X13510571Y-14260214D02*
X13696286Y-14260214D01*
X13596286Y-14374500D01*
X13639143Y-14374500D01*
X13667714Y-14388786D01*
X13682000Y-14403071D01*
X13696286Y-14431643D01*
X13696286Y-14503071D01*
X13682000Y-14531643D01*
X13667714Y-14545929D01*
X13639143Y-14560214D01*
X13553428Y-14560214D01*
X13524857Y-14545929D01*
X13510571Y-14531643D01*
X13982000Y-14560214D02*
X13810571Y-14560214D01*
X13896286Y-14560214D02*
X13896286Y-14260214D01*
X13867714Y-14303071D01*
X13839143Y-14331643D01*
X13810571Y-14345929D01*
X14096286Y-14260214D02*
X14096286Y-14317357D01*
X14210571Y-14260214D02*
X14210571Y-14317357D01*
X14653428Y-14674500D02*
X14639143Y-14660214D01*
X14610571Y-14617357D01*
X14596286Y-14588786D01*
X14582000Y-14545929D01*
X14567714Y-14474500D01*
X14567714Y-14417357D01*
X14582000Y-14345929D01*
X14596286Y-14303071D01*
X14610571Y-14274500D01*
X14639143Y-14231643D01*
X14653428Y-14217357D01*
X14896286Y-14360214D02*
X14896286Y-14560214D01*
X14824857Y-14245929D02*
X14753428Y-14460214D01*
X14939143Y-14460214D01*
X15282000Y-14560214D02*
X15282000Y-14260214D01*
X15410571Y-14560214D02*
X15410571Y-14403071D01*
X15396286Y-14374500D01*
X15367714Y-14360214D01*
X15324857Y-14360214D01*
X15296286Y-14374500D01*
X15282000Y-14388786D01*
X15596286Y-14560214D02*
X15567714Y-14545929D01*
X15553428Y-14531643D01*
X15539143Y-14503071D01*
X15539143Y-14417357D01*
X15553428Y-14388786D01*
X15567714Y-14374500D01*
X15596286Y-14360214D01*
X15639143Y-14360214D01*
X15667714Y-14374500D01*
X15682000Y-14388786D01*
X15696286Y-14417357D01*
X15696286Y-14503071D01*
X15682000Y-14531643D01*
X15667714Y-14545929D01*
X15639143Y-14560214D01*
X15596286Y-14560214D01*
X15867714Y-14560214D02*
X15839143Y-14545929D01*
X15824857Y-14517357D01*
X15824857Y-14260214D01*
X16096286Y-14545929D02*
X16067714Y-14560214D01*
X16010571Y-14560214D01*
X15982000Y-14545929D01*
X15967714Y-14517357D01*
X15967714Y-14403071D01*
X15982000Y-14374500D01*
X16010571Y-14360214D01*
X16067714Y-14360214D01*
X16096286Y-14374500D01*
X16110571Y-14403071D01*
X16110571Y-14431643D01*
X15967714Y-14460214D01*
X16224857Y-14545929D02*
X16253428Y-14560214D01*
X16310571Y-14560214D01*
X16339143Y-14545929D01*
X16353428Y-14517357D01*
X16353428Y-14503071D01*
X16339143Y-14474500D01*
X16310571Y-14460214D01*
X16267714Y-14460214D01*
X16239143Y-14445929D01*
X16224857Y-14417357D01*
X16224857Y-14403071D01*
X16239143Y-14374500D01*
X16267714Y-14360214D01*
X16310571Y-14360214D01*
X16339143Y-14374500D01*
X16453428Y-14674500D02*
X16467714Y-14660214D01*
X16496286Y-14617357D01*
X16510571Y-14588786D01*
X16524857Y-14545929D01*
X16539143Y-14474500D01*
X16539143Y-14417357D01*
X16524857Y-14345929D01*
X16510571Y-14303071D01*
X16496286Y-14274500D01*
X16467714Y-14231643D01*
X16453428Y-14217357D01*
X9967000Y-14820500D02*
G75*
G03*
X9967000Y-14820500I-50000J0D01*
G01*
X10410571Y-14956214D02*
X10239143Y-14956214D01*
X10324857Y-14956214D02*
X10324857Y-14656214D01*
X10296286Y-14699071D01*
X10267714Y-14727643D01*
X10239143Y-14741929D01*
X10539143Y-14927643D02*
X10553428Y-14941929D01*
X10539143Y-14956214D01*
X10524857Y-14941929D01*
X10539143Y-14927643D01*
X10539143Y-14956214D01*
X10739143Y-14656214D02*
X10767714Y-14656214D01*
X10796286Y-14670500D01*
X10810571Y-14684786D01*
X10824857Y-14713357D01*
X10839143Y-14770500D01*
X10839143Y-14841929D01*
X10824857Y-14899071D01*
X10810571Y-14927643D01*
X10796286Y-14941929D01*
X10767714Y-14956214D01*
X10739143Y-14956214D01*
X10710571Y-14941929D01*
X10696286Y-14927643D01*
X10682000Y-14899071D01*
X10667714Y-14841929D01*
X10667714Y-14770500D01*
X10682000Y-14713357D01*
X10696286Y-14684786D01*
X10710571Y-14670500D01*
X10739143Y-14656214D01*
X11024857Y-14656214D02*
X11053428Y-14656214D01*
X11082000Y-14670500D01*
X11096286Y-14684786D01*
X11110571Y-14713357D01*
X11124857Y-14770500D01*
X11124857Y-14841929D01*
X11110571Y-14899071D01*
X11096286Y-14927643D01*
X11082000Y-14941929D01*
X11053428Y-14956214D01*
X11024857Y-14956214D01*
X10996286Y-14941929D01*
X10982000Y-14927643D01*
X10967714Y-14899071D01*
X10953428Y-14841929D01*
X10953428Y-14770500D01*
X10967714Y-14713357D01*
X10982000Y-14684786D01*
X10996286Y-14670500D01*
X11024857Y-14656214D01*
X11253428Y-14956214D02*
X11253428Y-14756214D01*
X11253428Y-14784786D02*
X11267714Y-14770500D01*
X11296286Y-14756214D01*
X11339143Y-14756214D01*
X11367714Y-14770500D01*
X11382000Y-14799071D01*
X11382000Y-14956214D01*
X11382000Y-14799071D02*
X11396286Y-14770500D01*
X11424857Y-14756214D01*
X11467714Y-14756214D01*
X11496286Y-14770500D01*
X11510571Y-14799071D01*
X11510571Y-14956214D01*
X11653428Y-14956214D02*
X11653428Y-14756214D01*
X11653428Y-14784786D02*
X11667714Y-14770500D01*
X11696286Y-14756214D01*
X11739143Y-14756214D01*
X11767714Y-14770500D01*
X11782000Y-14799071D01*
X11782000Y-14956214D01*
X11782000Y-14799071D02*
X11796286Y-14770500D01*
X11824857Y-14756214D01*
X11867714Y-14756214D01*
X11896286Y-14770500D01*
X11910571Y-14799071D01*
X11910571Y-14956214D01*
X12496286Y-14641929D02*
X12239143Y-15027643D01*
X12882000Y-14656214D02*
X12910571Y-14656214D01*
X12939143Y-14670500D01*
X12953428Y-14684786D01*
X12967714Y-14713357D01*
X12982000Y-14770500D01*
X12982000Y-14841929D01*
X12967714Y-14899071D01*
X12953428Y-14927643D01*
X12939143Y-14941929D01*
X12910571Y-14956214D01*
X12882000Y-14956214D01*
X12853428Y-14941929D01*
X12839143Y-14927643D01*
X12824857Y-14899071D01*
X12810571Y-14841929D01*
X12810571Y-14770500D01*
X12824857Y-14713357D01*
X12839143Y-14684786D01*
X12853428Y-14670500D01*
X12882000Y-14656214D01*
X13110571Y-14927643D02*
X13124857Y-14941929D01*
X13110571Y-14956214D01*
X13096286Y-14941929D01*
X13110571Y-14927643D01*
X13110571Y-14956214D01*
X13310571Y-14656214D02*
X13339143Y-14656214D01*
X13367714Y-14670500D01*
X13382000Y-14684786D01*
X13396286Y-14713357D01*
X13410571Y-14770500D01*
X13410571Y-14841929D01*
X13396286Y-14899071D01*
X13382000Y-14927643D01*
X13367714Y-14941929D01*
X13339143Y-14956214D01*
X13310571Y-14956214D01*
X13282000Y-14941929D01*
X13267714Y-14927643D01*
X13253428Y-14899071D01*
X13239143Y-14841929D01*
X13239143Y-14770500D01*
X13253428Y-14713357D01*
X13267714Y-14684786D01*
X13282000Y-14670500D01*
X13310571Y-14656214D01*
X13510571Y-14656214D02*
X13696286Y-14656214D01*
X13596286Y-14770500D01*
X13639143Y-14770500D01*
X13667714Y-14784786D01*
X13682000Y-14799071D01*
X13696286Y-14827643D01*
X13696286Y-14899071D01*
X13682000Y-14927643D01*
X13667714Y-14941929D01*
X13639143Y-14956214D01*
X13553428Y-14956214D01*
X13524857Y-14941929D01*
X13510571Y-14927643D01*
X13839143Y-14956214D02*
X13896286Y-14956214D01*
X13924857Y-14941929D01*
X13939143Y-14927643D01*
X13967714Y-14884786D01*
X13982000Y-14827643D01*
X13982000Y-14713357D01*
X13967714Y-14684786D01*
X13953428Y-14670500D01*
X13924857Y-14656214D01*
X13867714Y-14656214D01*
X13839143Y-14670500D01*
X13824857Y-14684786D01*
X13810571Y-14713357D01*
X13810571Y-14784786D01*
X13824857Y-14813357D01*
X13839143Y-14827643D01*
X13867714Y-14841929D01*
X13924857Y-14841929D01*
X13953428Y-14827643D01*
X13967714Y-14813357D01*
X13982000Y-14784786D01*
X14096286Y-14656214D02*
X14096286Y-14713357D01*
X14210571Y-14656214D02*
X14210571Y-14713357D01*
X14653428Y-15070500D02*
X14639143Y-15056214D01*
X14610571Y-15013357D01*
X14596286Y-14984786D01*
X14582000Y-14941929D01*
X14567714Y-14870500D01*
X14567714Y-14813357D01*
X14582000Y-14741929D01*
X14596286Y-14699071D01*
X14610571Y-14670500D01*
X14639143Y-14627643D01*
X14653428Y-14613357D01*
X14896286Y-14756214D02*
X14896286Y-14956214D01*
X14824857Y-14641929D02*
X14753428Y-14856214D01*
X14939143Y-14856214D01*
X15210571Y-14956214D02*
X15039143Y-14956214D01*
X15124857Y-14956214D02*
X15124857Y-14656214D01*
X15096286Y-14699071D01*
X15067714Y-14727643D01*
X15039143Y-14741929D01*
X15567714Y-14956214D02*
X15567714Y-14656214D01*
X15696286Y-14956214D02*
X15696286Y-14799071D01*
X15682000Y-14770500D01*
X15653428Y-14756214D01*
X15610571Y-14756214D01*
X15582000Y-14770500D01*
X15567714Y-14784786D01*
X15882000Y-14956214D02*
X15853428Y-14941929D01*
X15839143Y-14927643D01*
X15824857Y-14899071D01*
X15824857Y-14813357D01*
X15839143Y-14784786D01*
X15853428Y-14770500D01*
X15882000Y-14756214D01*
X15924857Y-14756214D01*
X15953428Y-14770500D01*
X15967714Y-14784786D01*
X15982000Y-14813357D01*
X15982000Y-14899071D01*
X15967714Y-14927643D01*
X15953428Y-14941929D01*
X15924857Y-14956214D01*
X15882000Y-14956214D01*
X16153428Y-14956214D02*
X16124857Y-14941929D01*
X16110571Y-14913357D01*
X16110571Y-14656214D01*
X16382000Y-14941929D02*
X16353428Y-14956214D01*
X16296286Y-14956214D01*
X16267714Y-14941929D01*
X16253428Y-14913357D01*
X16253428Y-14799071D01*
X16267714Y-14770500D01*
X16296286Y-14756214D01*
X16353428Y-14756214D01*
X16382000Y-14770500D01*
X16396286Y-14799071D01*
X16396286Y-14827643D01*
X16253428Y-14856214D01*
X16510571Y-14941929D02*
X16539143Y-14956214D01*
X16596286Y-14956214D01*
X16624857Y-14941929D01*
X16639143Y-14913357D01*
X16639143Y-14899071D01*
X16624857Y-14870500D01*
X16596286Y-14856214D01*
X16553428Y-14856214D01*
X16524857Y-14841929D01*
X16510571Y-14813357D01*
X16510571Y-14799071D01*
X16524857Y-14770500D01*
X16553428Y-14756214D01*
X16596286Y-14756214D01*
X16624857Y-14770500D01*
X16739143Y-15070500D02*
X16753428Y-15056214D01*
X16782000Y-15013357D01*
X16796286Y-14984786D01*
X16810571Y-14941929D01*
X16824857Y-14870500D01*
X16824857Y-14813357D01*
X16810571Y-14741929D01*
X16796286Y-14699071D01*
X16782000Y-14670500D01*
X16753428Y-14627643D01*
X16739143Y-14613357D01*
X9912000Y-15161500D02*
X9912000Y-15271500D01*
X9857000Y-15216500D02*
X9967000Y-15216500D01*
X10410571Y-15352214D02*
X10239143Y-15352214D01*
X10324857Y-15352214D02*
X10324857Y-15052214D01*
X10296286Y-15095071D01*
X10267714Y-15123643D01*
X10239143Y-15137929D01*
X10539143Y-15323643D02*
X10553428Y-15337929D01*
X10539143Y-15352214D01*
X10524857Y-15337929D01*
X10539143Y-15323643D01*
X10539143Y-15352214D01*
X10839143Y-15352214D02*
X10667714Y-15352214D01*
X10753428Y-15352214D02*
X10753428Y-15052214D01*
X10724857Y-15095071D01*
X10696286Y-15123643D01*
X10667714Y-15137929D01*
X11024857Y-15052214D02*
X11053428Y-15052214D01*
X11082000Y-15066500D01*
X11096286Y-15080786D01*
X11110571Y-15109357D01*
X11124857Y-15166500D01*
X11124857Y-15237929D01*
X11110571Y-15295071D01*
X11096286Y-15323643D01*
X11082000Y-15337929D01*
X11053428Y-15352214D01*
X11024857Y-15352214D01*
X10996286Y-15337929D01*
X10982000Y-15323643D01*
X10967714Y-15295071D01*
X10953428Y-15237929D01*
X10953428Y-15166500D01*
X10967714Y-15109357D01*
X10982000Y-15080786D01*
X10996286Y-15066500D01*
X11024857Y-15052214D01*
X11253428Y-15352214D02*
X11253428Y-15152214D01*
X11253428Y-15180786D02*
X11267714Y-15166500D01*
X11296286Y-15152214D01*
X11339143Y-15152214D01*
X11367714Y-15166500D01*
X11382000Y-15195071D01*
X11382000Y-15352214D01*
X11382000Y-15195071D02*
X11396286Y-15166500D01*
X11424857Y-15152214D01*
X11467714Y-15152214D01*
X11496286Y-15166500D01*
X11510571Y-15195071D01*
X11510571Y-15352214D01*
X11653428Y-15352214D02*
X11653428Y-15152214D01*
X11653428Y-15180786D02*
X11667714Y-15166500D01*
X11696286Y-15152214D01*
X11739143Y-15152214D01*
X11767714Y-15166500D01*
X11782000Y-15195071D01*
X11782000Y-15352214D01*
X11782000Y-15195071D02*
X11796286Y-15166500D01*
X11824857Y-15152214D01*
X11867714Y-15152214D01*
X11896286Y-15166500D01*
X11910571Y-15195071D01*
X11910571Y-15352214D01*
X12496286Y-15037929D02*
X12239143Y-15423643D01*
X12882000Y-15052214D02*
X12910571Y-15052214D01*
X12939143Y-15066500D01*
X12953428Y-15080786D01*
X12967714Y-15109357D01*
X12982000Y-15166500D01*
X12982000Y-15237929D01*
X12967714Y-15295071D01*
X12953428Y-15323643D01*
X12939143Y-15337929D01*
X12910571Y-15352214D01*
X12882000Y-15352214D01*
X12853428Y-15337929D01*
X12839143Y-15323643D01*
X12824857Y-15295071D01*
X12810571Y-15237929D01*
X12810571Y-15166500D01*
X12824857Y-15109357D01*
X12839143Y-15080786D01*
X12853428Y-15066500D01*
X12882000Y-15052214D01*
X13110571Y-15323643D02*
X13124857Y-15337929D01*
X13110571Y-15352214D01*
X13096286Y-15337929D01*
X13110571Y-15323643D01*
X13110571Y-15352214D01*
X13310571Y-15052214D02*
X13339143Y-15052214D01*
X13367714Y-15066500D01*
X13382000Y-15080786D01*
X13396286Y-15109357D01*
X13410571Y-15166500D01*
X13410571Y-15237929D01*
X13396286Y-15295071D01*
X13382000Y-15323643D01*
X13367714Y-15337929D01*
X13339143Y-15352214D01*
X13310571Y-15352214D01*
X13282000Y-15337929D01*
X13267714Y-15323643D01*
X13253428Y-15295071D01*
X13239143Y-15237929D01*
X13239143Y-15166500D01*
X13253428Y-15109357D01*
X13267714Y-15080786D01*
X13282000Y-15066500D01*
X13310571Y-15052214D01*
X13667714Y-15152214D02*
X13667714Y-15352214D01*
X13596286Y-15037929D02*
X13524857Y-15252214D01*
X13710571Y-15252214D01*
X13796286Y-15052214D02*
X13982000Y-15052214D01*
X13882000Y-15166500D01*
X13924857Y-15166500D01*
X13953428Y-15180786D01*
X13967714Y-15195071D01*
X13982000Y-15223643D01*
X13982000Y-15295071D01*
X13967714Y-15323643D01*
X13953428Y-15337929D01*
X13924857Y-15352214D01*
X13839143Y-15352214D01*
X13810571Y-15337929D01*
X13796286Y-15323643D01*
X14096286Y-15052214D02*
X14096286Y-15109357D01*
X14210571Y-15052214D02*
X14210571Y-15109357D01*
X14653428Y-15466500D02*
X14639143Y-15452214D01*
X14610571Y-15409357D01*
X14596286Y-15380786D01*
X14582000Y-15337929D01*
X14567714Y-15266500D01*
X14567714Y-15209357D01*
X14582000Y-15137929D01*
X14596286Y-15095071D01*
X14610571Y-15066500D01*
X14639143Y-15023643D01*
X14653428Y-15009357D01*
X14924857Y-15352214D02*
X14753428Y-15352214D01*
X14839143Y-15352214D02*
X14839143Y-15052214D01*
X14810571Y-15095071D01*
X14782000Y-15123643D01*
X14753428Y-15137929D01*
X15182000Y-15052214D02*
X15124857Y-15052214D01*
X15096286Y-15066500D01*
X15082000Y-15080786D01*
X15053428Y-15123643D01*
X15039143Y-15180786D01*
X15039143Y-15295071D01*
X15053428Y-15323643D01*
X15067714Y-15337929D01*
X15096286Y-15352214D01*
X15153428Y-15352214D01*
X15182000Y-15337929D01*
X15196286Y-15323643D01*
X15210571Y-15295071D01*
X15210571Y-15223643D01*
X15196286Y-15195071D01*
X15182000Y-15180786D01*
X15153428Y-15166500D01*
X15096286Y-15166500D01*
X15067714Y-15180786D01*
X15053428Y-15195071D01*
X15039143Y-15223643D01*
X15567714Y-15352214D02*
X15567714Y-15052214D01*
X15696286Y-15352214D02*
X15696286Y-15195071D01*
X15682000Y-15166500D01*
X15653428Y-15152214D01*
X15610571Y-15152214D01*
X15582000Y-15166500D01*
X15567714Y-15180786D01*
X15882000Y-15352214D02*
X15853428Y-15337929D01*
X15839143Y-15323643D01*
X15824857Y-15295071D01*
X15824857Y-15209357D01*
X15839143Y-15180786D01*
X15853428Y-15166500D01*
X15882000Y-15152214D01*
X15924857Y-15152214D01*
X15953428Y-15166500D01*
X15967714Y-15180786D01*
X15982000Y-15209357D01*
X15982000Y-15295071D01*
X15967714Y-15323643D01*
X15953428Y-15337929D01*
X15924857Y-15352214D01*
X15882000Y-15352214D01*
X16153428Y-15352214D02*
X16124857Y-15337929D01*
X16110571Y-15309357D01*
X16110571Y-15052214D01*
X16382000Y-15337929D02*
X16353428Y-15352214D01*
X16296286Y-15352214D01*
X16267714Y-15337929D01*
X16253428Y-15309357D01*
X16253428Y-15195071D01*
X16267714Y-15166500D01*
X16296286Y-15152214D01*
X16353428Y-15152214D01*
X16382000Y-15166500D01*
X16396286Y-15195071D01*
X16396286Y-15223643D01*
X16253428Y-15252214D01*
X16510571Y-15337929D02*
X16539143Y-15352214D01*
X16596286Y-15352214D01*
X16624857Y-15337929D01*
X16639143Y-15309357D01*
X16639143Y-15295071D01*
X16624857Y-15266500D01*
X16596286Y-15252214D01*
X16553428Y-15252214D01*
X16524857Y-15237929D01*
X16510571Y-15209357D01*
X16510571Y-15195071D01*
X16524857Y-15166500D01*
X16553428Y-15152214D01*
X16596286Y-15152214D01*
X16624857Y-15166500D01*
X16739143Y-15466500D02*
X16753428Y-15452214D01*
X16782000Y-15409357D01*
X16796286Y-15380786D01*
X16810571Y-15337929D01*
X16824857Y-15266500D01*
X16824857Y-15209357D01*
X16810571Y-15137929D01*
X16796286Y-15095071D01*
X16782000Y-15066500D01*
X16753428Y-15023643D01*
X16739143Y-15009357D01*
M02*
