G04 #@! TF.GenerationSoftware,KiCad,Pcbnew,(5.1.9)-1*
G04 #@! TF.CreationDate,2021-04-19T08:09:59-05:00*
G04 #@! TF.ProjectId,mini_game_april2021,6d696e69-5f67-4616-9d65-5f617072696c,rev?*
G04 #@! TF.SameCoordinates,Original*
G04 #@! TF.FileFunction,Legend,Top*
G04 #@! TF.FilePolarity,Positive*
%FSLAX46Y46*%
G04 Gerber Fmt 4.6, Leading zero omitted, Abs format (unit mm)*
G04 Created by KiCad (PCBNEW (5.1.9)-1) date 2021-04-19 08:09:59*
%MOMM*%
%LPD*%
G01*
G04 APERTURE LIST*
%ADD10C,0.150000*%
%ADD11C,0.304800*%
%ADD12C,0.120000*%
%ADD13C,0.228600*%
%ADD14R,1.600000X1.600000*%
%ADD15O,1.600000X1.600000*%
%ADD16C,2.000000*%
%ADD17O,1.700000X1.700000*%
%ADD18R,1.700000X1.700000*%
G04 APERTURE END LIST*
D10*
X101306380Y-127674285D02*
X102115904Y-127674285D01*
X102211142Y-127626666D01*
X102258761Y-127579047D01*
X102306380Y-127483809D01*
X102306380Y-127293333D01*
X102258761Y-127198095D01*
X102211142Y-127150476D01*
X102115904Y-127102857D01*
X101306380Y-127102857D01*
X102258761Y-126674285D02*
X102306380Y-126531428D01*
X102306380Y-126293333D01*
X102258761Y-126198095D01*
X102211142Y-126150476D01*
X102115904Y-126102857D01*
X102020666Y-126102857D01*
X101925428Y-126150476D01*
X101877809Y-126198095D01*
X101830190Y-126293333D01*
X101782571Y-126483809D01*
X101734952Y-126579047D01*
X101687333Y-126626666D01*
X101592095Y-126674285D01*
X101496857Y-126674285D01*
X101401619Y-126626666D01*
X101354000Y-126579047D01*
X101306380Y-126483809D01*
X101306380Y-126245714D01*
X101354000Y-126102857D01*
X101782571Y-125340952D02*
X101830190Y-125198095D01*
X101877809Y-125150476D01*
X101973047Y-125102857D01*
X102115904Y-125102857D01*
X102211142Y-125150476D01*
X102258761Y-125198095D01*
X102306380Y-125293333D01*
X102306380Y-125674285D01*
X101306380Y-125674285D01*
X101306380Y-125340952D01*
X101354000Y-125245714D01*
X101401619Y-125198095D01*
X101496857Y-125150476D01*
X101592095Y-125150476D01*
X101687333Y-125198095D01*
X101734952Y-125245714D01*
X101782571Y-125340952D01*
X101782571Y-125674285D01*
X102401619Y-124912380D02*
X102401619Y-124150476D01*
X102306380Y-123912380D02*
X101306380Y-123912380D01*
X102020666Y-123579047D01*
X101306380Y-123245714D01*
X102306380Y-123245714D01*
X102306380Y-122769523D02*
X101306380Y-122769523D01*
X102306380Y-122293333D02*
X101306380Y-122293333D01*
X102306380Y-121721904D01*
X101306380Y-121721904D01*
X102306380Y-121245714D02*
X101306380Y-121245714D01*
X178766624Y-121395240D02*
X179099958Y-122395240D01*
X179433291Y-121395240D01*
X179528529Y-122490479D02*
X180290434Y-122490479D01*
X180719005Y-121395240D02*
X180909481Y-121395240D01*
X181004720Y-121442860D01*
X181099958Y-121538098D01*
X181147577Y-121728574D01*
X181147577Y-122061907D01*
X181099958Y-122252383D01*
X181004720Y-122347621D01*
X180909481Y-122395240D01*
X180719005Y-122395240D01*
X180623767Y-122347621D01*
X180528529Y-122252383D01*
X180480910Y-122061907D01*
X180480910Y-121728574D01*
X180528529Y-121538098D01*
X180623767Y-121442860D01*
X180719005Y-121395240D01*
X179199659Y-126414280D02*
X179532992Y-127414280D01*
X179866325Y-126414280D01*
X179961563Y-127509519D02*
X180723468Y-127509519D01*
X180961563Y-127414280D02*
X180961563Y-126414280D01*
X164719047Y-129611428D02*
X165480952Y-129611428D01*
X165100000Y-129992380D02*
X165100000Y-129230476D01*
X144399047Y-99639428D02*
X145160952Y-99639428D01*
X144780000Y-100020380D02*
X144780000Y-99258476D01*
D11*
X122294952Y-109377238D02*
X121617619Y-108409619D01*
X121133809Y-109377238D02*
X121133809Y-107345238D01*
X121907904Y-107345238D01*
X122101428Y-107442000D01*
X122198190Y-107538761D01*
X122294952Y-107732285D01*
X122294952Y-108022571D01*
X122198190Y-108216095D01*
X122101428Y-108312857D01*
X121907904Y-108409619D01*
X121133809Y-108409619D01*
X111449152Y-109402638D02*
X110481533Y-109402638D01*
X110481533Y-107370638D01*
X180719790Y-109050666D02*
X181687409Y-109050666D01*
X180526266Y-109631238D02*
X181203600Y-107599238D01*
X181880933Y-109631238D01*
X170579142Y-108566857D02*
X170869428Y-108663619D01*
X170966190Y-108760380D01*
X171062952Y-108953904D01*
X171062952Y-109244190D01*
X170966190Y-109437714D01*
X170869428Y-109534476D01*
X170675904Y-109631238D01*
X169901809Y-109631238D01*
X169901809Y-107599238D01*
X170579142Y-107599238D01*
X170772666Y-107696000D01*
X170869428Y-107792761D01*
X170966190Y-107986285D01*
X170966190Y-108179809D01*
X170869428Y-108373333D01*
X170772666Y-108470095D01*
X170579142Y-108566857D01*
X169901809Y-108566857D01*
D12*
X184785000Y-129286000D02*
X184785000Y-124460000D01*
X173355000Y-130175000D02*
X183642000Y-130175000D01*
X173355000Y-119888000D02*
X173355000Y-127762000D01*
X184785000Y-124460000D02*
X184785000Y-118745000D01*
X146180000Y-133480000D02*
X146180000Y-115440000D01*
X102740000Y-133480000D02*
X146180000Y-133480000D01*
X102740000Y-115440000D02*
X102740000Y-133480000D01*
X105410000Y-118110000D02*
X105410000Y-115440000D01*
X140970000Y-118110000D02*
X105410000Y-118110000D01*
X140970000Y-118110000D02*
X140970000Y-115440000D01*
X105410000Y-130810000D02*
X105410000Y-133480000D01*
X143510000Y-130810000D02*
X105410000Y-130810000D01*
X143510000Y-130810000D02*
X143510000Y-133480000D01*
X146180000Y-115440000D02*
X143510000Y-115440000D01*
X140970000Y-115440000D02*
X102740000Y-115440000D01*
X143510000Y-118110000D02*
X143510000Y-115440000D01*
X140970000Y-118110000D02*
X143510000Y-118110000D01*
X111585000Y-105010000D02*
X110085000Y-105010000D01*
X107585000Y-106260000D02*
X107585000Y-110760000D01*
X110085000Y-112010000D02*
X111585000Y-112010000D01*
X114085000Y-110760000D02*
X114085000Y-106260000D01*
X168335000Y-125035000D02*
X165675000Y-125035000D01*
X168335000Y-127635000D02*
X168335000Y-125035000D01*
X165675000Y-127635000D02*
X165675000Y-125035000D01*
X168335000Y-127635000D02*
X165675000Y-127635000D01*
X168335000Y-128905000D02*
X168335000Y-130235000D01*
X168335000Y-130235000D02*
X167005000Y-130235000D01*
X140910000Y-102930000D02*
X140910000Y-101600000D01*
X142240000Y-102930000D02*
X140910000Y-102930000D01*
X143510000Y-102930000D02*
X143510000Y-100270000D01*
X143510000Y-100270000D02*
X151190000Y-100270000D01*
X143510000Y-102930000D02*
X151190000Y-102930000D01*
X151190000Y-102930000D02*
X151190000Y-100270000D01*
X184210000Y-128330000D02*
X182880000Y-128330000D01*
X184210000Y-127000000D02*
X184210000Y-128330000D01*
X184210000Y-125730000D02*
X181550000Y-125730000D01*
X181550000Y-125730000D02*
X181550000Y-120590000D01*
X184210000Y-125730000D02*
X184210000Y-120590000D01*
X184210000Y-120590000D02*
X181550000Y-120590000D01*
X118380000Y-106260000D02*
X118380000Y-110760000D01*
X122380000Y-105010000D02*
X120880000Y-105010000D01*
X124880000Y-110760000D02*
X124880000Y-106260000D01*
X120880000Y-112010000D02*
X122380000Y-112010000D01*
X167220000Y-106410000D02*
X167220000Y-110910000D01*
X171220000Y-105160000D02*
X169720000Y-105160000D01*
X173720000Y-110910000D02*
X173720000Y-106410000D01*
X169720000Y-112160000D02*
X171220000Y-112160000D01*
X184515000Y-110910000D02*
X184515000Y-106410000D01*
X180515000Y-112160000D02*
X182015000Y-112160000D01*
X178015000Y-106410000D02*
X178015000Y-110910000D01*
X182015000Y-105160000D02*
X180515000Y-105160000D01*
X165312400Y-122335600D02*
X163982400Y-122335600D01*
X165312400Y-121005600D02*
X165312400Y-122335600D01*
X165312400Y-119735600D02*
X162652400Y-119735600D01*
X162652400Y-119735600D02*
X162652400Y-117135600D01*
X165312400Y-119735600D02*
X165312400Y-117135600D01*
X165312400Y-117135600D02*
X162652400Y-117135600D01*
D13*
X113646857Y-125149428D02*
X113646857Y-123625428D01*
X114517714Y-125149428D01*
X114517714Y-123625428D01*
X115170857Y-124714000D02*
X115896571Y-124714000D01*
X115025714Y-125149428D02*
X115533714Y-123625428D01*
X116041714Y-125149428D01*
X116549714Y-125149428D02*
X116549714Y-123625428D01*
X117420571Y-125149428D01*
X117420571Y-123625428D01*
X118436571Y-123625428D02*
X118726857Y-123625428D01*
X118872000Y-123698000D01*
X119017142Y-123843142D01*
X119089714Y-124133428D01*
X119089714Y-124641428D01*
X119017142Y-124931714D01*
X118872000Y-125076857D01*
X118726857Y-125149428D01*
X118436571Y-125149428D01*
X118291428Y-125076857D01*
X118146285Y-124931714D01*
X118073714Y-124641428D01*
X118073714Y-124133428D01*
X118146285Y-123843142D01*
X118291428Y-123698000D01*
X118436571Y-123625428D01*
D10*
X164774571Y-126976095D02*
X164822190Y-126833238D01*
X164869809Y-126785619D01*
X164965047Y-126738000D01*
X165107904Y-126738000D01*
X165203142Y-126785619D01*
X165250761Y-126833238D01*
X165298380Y-126928476D01*
X165298380Y-127309428D01*
X164298380Y-127309428D01*
X164298380Y-126976095D01*
X164346000Y-126880857D01*
X164393619Y-126833238D01*
X164488857Y-126785619D01*
X164584095Y-126785619D01*
X164679333Y-126833238D01*
X164726952Y-126880857D01*
X164774571Y-126976095D01*
X164774571Y-127309428D01*
X165012666Y-126357047D02*
X165012666Y-125880857D01*
X165298380Y-126452285D02*
X164298380Y-126118952D01*
X165298380Y-125785619D01*
X164298380Y-125595142D02*
X164298380Y-125023714D01*
X165298380Y-125309428D02*
X164298380Y-125309428D01*
X140533619Y-103338380D02*
X140724095Y-103338380D01*
X140819333Y-103386000D01*
X140914571Y-103481238D01*
X140962190Y-103671714D01*
X140962190Y-104005047D01*
X140914571Y-104195523D01*
X140819333Y-104290761D01*
X140724095Y-104338380D01*
X140533619Y-104338380D01*
X140438380Y-104290761D01*
X140343142Y-104195523D01*
X140295523Y-104005047D01*
X140295523Y-103671714D01*
X140343142Y-103481238D01*
X140438380Y-103386000D01*
X140533619Y-103338380D01*
X141866952Y-104338380D02*
X141390761Y-104338380D01*
X141390761Y-103338380D01*
X142200285Y-103814571D02*
X142533619Y-103814571D01*
X142676476Y-104338380D02*
X142200285Y-104338380D01*
X142200285Y-103338380D01*
X142676476Y-103338380D01*
X143105047Y-104338380D02*
X143105047Y-103338380D01*
X143343142Y-103338380D01*
X143486000Y-103386000D01*
X143581238Y-103481238D01*
X143628857Y-103576476D01*
X143676476Y-103766952D01*
X143676476Y-103909809D01*
X143628857Y-104100285D01*
X143581238Y-104195523D01*
X143486000Y-104290761D01*
X143343142Y-104338380D01*
X143105047Y-104338380D01*
X174585380Y-126619046D02*
X175585380Y-126285713D01*
X174585380Y-125952380D01*
X175680619Y-125857141D02*
X175680619Y-125095237D01*
X175585380Y-124285713D02*
X175109190Y-124619046D01*
X175585380Y-124857141D02*
X174585380Y-124857141D01*
X174585380Y-124476189D01*
X174633000Y-124380951D01*
X174680619Y-124333332D01*
X174775857Y-124285713D01*
X174918714Y-124285713D01*
X175013952Y-124333332D01*
X175061571Y-124380951D01*
X175109190Y-124476189D01*
X175109190Y-124857141D01*
X175061571Y-123857141D02*
X175061571Y-123523808D01*
X175585380Y-123380951D02*
X175585380Y-123857141D01*
X174585380Y-123857141D01*
X174585380Y-123380951D01*
X174633000Y-122428570D02*
X174585380Y-122523808D01*
X174585380Y-122666665D01*
X174633000Y-122809522D01*
X174728238Y-122904760D01*
X174823476Y-122952380D01*
X175013952Y-122999999D01*
X175156809Y-122999999D01*
X175347285Y-122952380D01*
X175442523Y-122904760D01*
X175537761Y-122809522D01*
X175585380Y-122666665D01*
X175585380Y-122571427D01*
X175537761Y-122428570D01*
X175490142Y-122380951D01*
X175156809Y-122380951D01*
X175156809Y-122571427D01*
X156448476Y-119022761D02*
X156591333Y-119070380D01*
X156829428Y-119070380D01*
X156924666Y-119022761D01*
X156972285Y-118975142D01*
X157019904Y-118879904D01*
X157019904Y-118784666D01*
X156972285Y-118689428D01*
X156924666Y-118641809D01*
X156829428Y-118594190D01*
X156638952Y-118546571D01*
X156543714Y-118498952D01*
X156496095Y-118451333D01*
X156448476Y-118356095D01*
X156448476Y-118260857D01*
X156496095Y-118165619D01*
X156543714Y-118118000D01*
X156638952Y-118070380D01*
X156877047Y-118070380D01*
X157019904Y-118118000D01*
X157353238Y-118070380D02*
X157591333Y-119070380D01*
X157781809Y-118356095D01*
X157972285Y-119070380D01*
X158210380Y-118070380D01*
X158353238Y-119165619D02*
X159115142Y-119165619D01*
X159353238Y-119070380D02*
X159353238Y-118070380D01*
X159734190Y-118070380D01*
X159829428Y-118118000D01*
X159877047Y-118165619D01*
X159924666Y-118260857D01*
X159924666Y-118403714D01*
X159877047Y-118498952D01*
X159829428Y-118546571D01*
X159734190Y-118594190D01*
X159353238Y-118594190D01*
X160258000Y-118070380D02*
X160496095Y-119070380D01*
X160686571Y-118356095D01*
X160877047Y-119070380D01*
X161115142Y-118070380D01*
X162067523Y-119070380D02*
X161734190Y-118594190D01*
X161496095Y-119070380D02*
X161496095Y-118070380D01*
X161877047Y-118070380D01*
X161972285Y-118118000D01*
X162019904Y-118165619D01*
X162067523Y-118260857D01*
X162067523Y-118403714D01*
X162019904Y-118498952D01*
X161972285Y-118546571D01*
X161877047Y-118594190D01*
X161496095Y-118594190D01*
%LPC*%
D14*
X142240000Y-116840000D03*
D15*
X109220000Y-132080000D03*
X139700000Y-116840000D03*
X111760000Y-132080000D03*
X137160000Y-116840000D03*
X114300000Y-132080000D03*
X134620000Y-116840000D03*
X116840000Y-132080000D03*
X132080000Y-116840000D03*
X119380000Y-132080000D03*
X129540000Y-116840000D03*
X121920000Y-132080000D03*
X127000000Y-116840000D03*
X124460000Y-132080000D03*
X124460000Y-116840000D03*
X127000000Y-132080000D03*
X121920000Y-116840000D03*
X129540000Y-132080000D03*
X119380000Y-116840000D03*
X132080000Y-132080000D03*
X116840000Y-116840000D03*
X134620000Y-132080000D03*
X114300000Y-116840000D03*
X137160000Y-132080000D03*
X111760000Y-116840000D03*
X139700000Y-132080000D03*
X109220000Y-116840000D03*
X142240000Y-132080000D03*
X106680000Y-116840000D03*
X106680000Y-132080000D03*
D16*
X113085000Y-111760000D03*
X108585000Y-111760000D03*
X113085000Y-105260000D03*
X108585000Y-105260000D03*
D17*
X167005000Y-126365000D03*
D18*
X167005000Y-128905000D03*
X142240000Y-101600000D03*
D17*
X144780000Y-101600000D03*
X147320000Y-101600000D03*
X149860000Y-101600000D03*
D18*
X182880000Y-127000000D03*
D17*
X182880000Y-124460000D03*
X182880000Y-121920000D03*
D16*
X123880000Y-111760000D03*
X119380000Y-111760000D03*
X123880000Y-105260000D03*
X119380000Y-105260000D03*
X172720000Y-111910000D03*
X168220000Y-111910000D03*
X172720000Y-105410000D03*
X168220000Y-105410000D03*
X179015000Y-105410000D03*
X183515000Y-105410000D03*
X179015000Y-111910000D03*
X183515000Y-111910000D03*
D18*
X163982400Y-121005600D03*
D17*
X163982400Y-118465600D03*
M02*
