G04 #@! TF.GenerationSoftware,KiCad,Pcbnew,(5.1.9)-1*
G04 #@! TF.CreationDate,2021-04-19T08:09:59-05:00*
G04 #@! TF.ProjectId,mini_game_april2021,6d696e69-5f67-4616-9d65-5f617072696c,rev?*
G04 #@! TF.SameCoordinates,Original*
G04 #@! TF.FileFunction,Copper,L2,Bot*
G04 #@! TF.FilePolarity,Positive*
%FSLAX46Y46*%
G04 Gerber Fmt 4.6, Leading zero omitted, Abs format (unit mm)*
G04 Created by KiCad (PCBNEW (5.1.9)-1) date 2021-04-19 08:09:59*
%MOMM*%
%LPD*%
G01*
G04 APERTURE LIST*
G04 #@! TA.AperFunction,ComponentPad*
%ADD10R,1.600000X1.600000*%
G04 #@! TD*
G04 #@! TA.AperFunction,ComponentPad*
%ADD11O,1.600000X1.600000*%
G04 #@! TD*
G04 #@! TA.AperFunction,ComponentPad*
%ADD12C,2.000000*%
G04 #@! TD*
G04 #@! TA.AperFunction,ComponentPad*
%ADD13O,1.700000X1.700000*%
G04 #@! TD*
G04 #@! TA.AperFunction,ComponentPad*
%ADD14R,1.700000X1.700000*%
G04 #@! TD*
G04 #@! TA.AperFunction,ViaPad*
%ADD15C,1.600200*%
G04 #@! TD*
G04 #@! TA.AperFunction,Conductor*
%ADD16C,0.499872*%
G04 #@! TD*
G04 APERTURE END LIST*
D10*
X142240000Y-116840000D03*
D11*
X109220000Y-132080000D03*
X139700000Y-116840000D03*
X111760000Y-132080000D03*
X137160000Y-116840000D03*
X114300000Y-132080000D03*
X134620000Y-116840000D03*
X116840000Y-132080000D03*
X132080000Y-116840000D03*
X119380000Y-132080000D03*
X129540000Y-116840000D03*
X121920000Y-132080000D03*
X127000000Y-116840000D03*
X124460000Y-132080000D03*
X124460000Y-116840000D03*
X127000000Y-132080000D03*
X121920000Y-116840000D03*
X129540000Y-132080000D03*
X119380000Y-116840000D03*
X132080000Y-132080000D03*
X116840000Y-116840000D03*
X134620000Y-132080000D03*
X114300000Y-116840000D03*
X137160000Y-132080000D03*
X111760000Y-116840000D03*
X139700000Y-132080000D03*
X109220000Y-116840000D03*
X142240000Y-132080000D03*
X106680000Y-116840000D03*
X106680000Y-132080000D03*
D12*
X113085000Y-111760000D03*
X108585000Y-111760000D03*
X113085000Y-105260000D03*
X108585000Y-105260000D03*
D13*
X167005000Y-126365000D03*
D14*
X167005000Y-128905000D03*
X142240000Y-101600000D03*
D13*
X144780000Y-101600000D03*
X147320000Y-101600000D03*
X149860000Y-101600000D03*
D14*
X182880000Y-127000000D03*
D13*
X182880000Y-124460000D03*
X182880000Y-121920000D03*
D12*
X123880000Y-111760000D03*
X119380000Y-111760000D03*
X123880000Y-105260000D03*
X119380000Y-105260000D03*
X172720000Y-111910000D03*
X168220000Y-111910000D03*
X172720000Y-105410000D03*
X168220000Y-105410000D03*
X179015000Y-105410000D03*
X183515000Y-105410000D03*
X179015000Y-111910000D03*
X183515000Y-111910000D03*
D14*
X163982400Y-121005600D03*
D13*
X163982400Y-118465600D03*
D15*
X128016000Y-109474000D03*
X149860000Y-109474000D03*
X147320000Y-109474000D03*
X147320000Y-115316000D03*
D16*
X103632000Y-123190000D02*
X109220000Y-128778000D01*
X105664000Y-109474000D02*
X103632000Y-111506000D01*
X103632000Y-111506000D02*
X103632000Y-123190000D01*
X128016000Y-109474000D02*
X105664000Y-109474000D01*
X109220000Y-132080000D02*
X109220000Y-128778000D01*
X124460000Y-127000000D02*
X124460000Y-132080000D01*
X125095000Y-126365000D02*
X124460000Y-127000000D01*
X129540000Y-126365000D02*
X125095000Y-126365000D01*
X134620000Y-121285000D02*
X129540000Y-126365000D01*
X149860000Y-118110000D02*
X146685000Y-121285000D01*
X146685000Y-121285000D02*
X134620000Y-121285000D01*
X149860000Y-109474000D02*
X149860000Y-118110000D01*
X147320000Y-109474000D02*
X147320000Y-115316000D01*
X166950000Y-106680000D02*
X168220000Y-105410000D01*
X152400000Y-106680000D02*
X166950000Y-106680000D01*
X139700000Y-128270000D02*
X139700000Y-132080000D01*
X140970000Y-127000000D02*
X139700000Y-128270000D01*
X152400000Y-106680000D02*
X152400000Y-125730000D01*
X167005000Y-113125000D02*
X168220000Y-111910000D01*
X180340000Y-124460000D02*
X179070000Y-123190000D01*
X182880000Y-124460000D02*
X180340000Y-124460000D01*
X167005000Y-126365000D02*
X167005000Y-122555000D01*
X179070000Y-123190000D02*
X179070000Y-121920000D01*
X151130000Y-127000000D02*
X148590000Y-127000000D01*
X148590000Y-127000000D02*
X140970000Y-127000000D01*
X160020000Y-129540000D02*
X167005000Y-122555000D01*
X182245000Y-115570000D02*
X183515000Y-114300000D01*
X183515000Y-114300000D02*
X183515000Y-111910000D01*
X180340000Y-115570000D02*
X182245000Y-115570000D01*
X179070000Y-116840000D02*
X180340000Y-115570000D01*
X167005000Y-121285000D02*
X179070000Y-121285000D01*
X179070000Y-121285000D02*
X179070000Y-116840000D01*
X179070000Y-121920000D02*
X179070000Y-121285000D01*
X167005000Y-122555000D02*
X167005000Y-121285000D01*
X167005000Y-121285000D02*
X167005000Y-113125000D01*
X151765000Y-126365000D02*
X154940000Y-129540000D01*
X154940000Y-129540000D02*
X160020000Y-129540000D01*
X152400000Y-125730000D02*
X151765000Y-126365000D01*
X151765000Y-126365000D02*
X151130000Y-127000000D01*
X142240000Y-104140000D02*
X144780000Y-106680000D01*
X144780000Y-106680000D02*
X152400000Y-106680000D01*
X142240000Y-101600000D02*
X142240000Y-104140000D01*
X119380000Y-105260000D02*
X121816000Y-107696000D01*
X138684000Y-107696000D02*
X142240000Y-104140000D01*
X121816000Y-107696000D02*
X138684000Y-107696000D01*
X168220000Y-105410000D02*
X171268000Y-108458000D01*
X180467000Y-108458000D02*
X183515000Y-105410000D01*
X171268000Y-108458000D02*
X180467000Y-108458000D01*
M02*
